PathFileType	4	(X/Y/Z)	D:\TRACE\spot_10-12-23\spot_arm_body_motion_1_5-v60.trc
DataRate	CameraRate	NumFrames	NumMarkers	Units	OrigDataRate	OrigDataStartFrame	OrigNumFrames
100.00	100.00	      24	9	mm	100.00	4376	      7000
Frame#	Time	front left toe			Front right toe			aft left toe			aft right toe			Arm			FL body			FR body			AL Body			AR Body			
		X1	Y1	Z1	X2	Y2	Z2	X3	Y3	Z3	X4	Y4	Z4	X5	Y5	Z5	X6	Y6	Z6	X7	Y7	Z7	X8	Y8	Z8	X9	Y9	Z9	

4376	43.750	-225.51160	26.92300	-459.88791	234.88503	22.68317	-326.21152	-243.92549	23.31180	159.66028	139.05814	17.23834	184.85458	52.34604	761.91870	-740.22559	-55.50231	592.62744	-465.28134	97.77692	596.47986	-458.18967	-103.47148	567.67224	415.57507	38.10921	565.73523	425.09500	
4377	43.760	-226.91849	27.04912	-459.47610	233.51915	22.83574	-326.39001	-244.12827	23.97567	160.28905	138.49686	16.80515	184.67101	52.61884	761.46613	-740.22913	-57.54773	592.40985	-464.45999	95.82561	596.51129	-457.66733	-100.54137	567.29510	416.71622	41.29953	565.64374	425.80984	
4378	43.770	-228.36469	26.97145	-458.89734	232.71964	23.41078	-326.49548	-244.93260	24.33529	160.60054	137.95964	16.29341	184.48149	53.67919	761.13092	-740.13251	-59.25348	592.19690	-463.49692	94.49041	596.35120	-457.99118	-97.38506	567.12122	417.49567	43.52222	565.39825	425.74600	
4379	43.780	-229.58597	27.08413	-458.47870	231.76437	23.85528	-326.59488	-245.13155	24.30702	160.86948	137.51697	15.82069	184.26395	55.45069	760.90936	-739.86481	-60.27976	591.77673	-462.68991	92.97089	596.20941	-457.59952	-95.16589	566.88196	418.44000	45.91101	565.03265	426.45432	
4380	43.790	-230.63530	27.37568	-458.34125	230.63643	23.73800	-326.91653	-245.82896	24.40837	161.08344	136.83459	15.54505	184.32799	57.23172	760.97955	-739.53058	-61.54494	591.44739	-461.86862	92.10627	595.69800	-456.90955	-93.40212	566.54462	419.53229	47.40800	564.71240	426.60022	
4381	43.800	-231.36890	27.61137	-458.08142	229.87279	23.82640	-326.68918	-246.99889	24.70849	161.27478	136.04990	15.42925	184.47098	59.21014	760.97406	-739.08655	-61.70135	591.29175	-461.18604	91.89693	595.33600	-456.52963	-92.09721	566.20911	420.18942	48.66241	564.59802	427.41772	
4382	43.810	-232.16489	28.30641	-458.07559	228.88707	23.71875	-326.63193	-247.76335	24.33600	161.41342	134.91350	15.49892	184.58525	60.57777	761.00146	-738.73846	-61.40499	591.25293	-460.53796	92.23442	595.11859	-456.33603	-91.96275	566.14325	421.00623	49.19827	564.24512	428.02008	
4383	43.820	-232.65565	29.15384	-458.20828	228.64468	23.74942	-326.00665	-249.51144	24.14086	161.12115	133.94421	15.43434	184.72083	61.50217	761.07159	-738.42004	-60.43643	591.24988	-459.87946	93.40457	594.90326	-455.27884	-91.82848	565.87964	421.41492	48.93622	563.80951	428.42886	
4384	43.830	-233.07671	29.75009	-458.27045	227.42355	23.58896	-325.85034	-250.24800	24.07186	161.21577	132.79362	15.42242	184.95328	61.65765	761.09528	-738.04114	-59.04077	591.28723	-459.19864	94.62189	594.69305	-454.53452	-92.48355	565.55945	421.98312	48.41639	563.39185	429.64795	
4385	43.840	-233.55724	30.39310	-458.48950	226.89154	23.35048	-325.54904	-251.51447	23.55911	160.80879	131.33180	15.34652	185.41299	61.28630	761.15436	-737.83441	-57.24983	591.18713	-458.65555	96.60403	594.79535	-453.29559	-93.41252	565.22449	422.64374	47.73953	563.03931	430.36563	
4386	43.850	-233.86821	31.14915	-458.68707	226.49867	23.58997	-324.72574	-252.37627	23.36405	161.13332	130.60986	15.36333	185.59131	60.23362	761.40521	-737.51404	-55.17725	591.55035	-457.81940	98.40209	594.85217	-452.14987	-94.70332	564.82062	423.34561	47.06635	562.89105	432.08261	
4387	43.860	-233.94066	31.69530	-458.74506	225.61852	23.54820	-324.62759	-254.23828	24.30899	161.37045	128.93390	15.15495	185.95419	58.67841	761.74994	-737.20477	-53.47878	591.64063	-457.21371	100.34694	595.00171	-451.02585	-95.25464	564.65118	423.91895	46.40516	562.50171	432.82675	
4388	43.870	-234.76494	32.65517	-458.90994	224.42001	23.43110	-324.72888	-254.69597	23.51168	160.60988	128.52672	15.27588	186.02879	56.67706	761.92761	-736.88422	-51.66177	591.99402	-456.25427	101.85879	595.26654	-449.28085	-95.75511	564.12921	424.63168	45.74459	562.20789	433.58072	
4389	43.880	-235.60191	33.01541	-458.78580	224.26430	23.83702	-323.93698	-255.78531	23.81005	161.09729	127.60504	15.06053	186.27090	54.39530	761.99744	-736.76440	-50.16924	592.07556	-455.49399	103.39135	595.64191	-448.50354	-96.11165	563.56561	425.43906	45.60658	561.58612	434.61658	
4390	43.890	-236.67677	33.21843	-458.61011	223.35635	23.86816	-323.85077	-256.28198	23.48368	161.13673	126.42773	14.70448	186.47264	52.37247	762.13293	-736.43933	-49.07398	592.09381	-454.36819	104.26817	595.88098	-447.55920	-95.45773	563.20978	426.41095	45.76474	561.13690	435.62164	
4391	43.900	-237.54448	33.62420	-458.57526	221.89326	23.52107	-324.06940	-256.90302	23.65317	161.29068	125.95322	14.38934	186.61143	50.37490	762.28241	-736.26239	-48.30259	592.26697	-453.29059	105.08467	596.13013	-445.89081	-94.74011	562.54626	427.47873	46.73140	560.75165	437.05249	
4392	43.910	-237.93695	35.42984	-457.98950	221.19409	23.51606	-323.71552	-257.27869	23.86756	161.47369	125.28616	13.83915	186.63469	48.93150	762.40808	-736.10828	-47.98454	592.48718	-452.26877	105.50361	596.62122	-445.09601	-94.07874	562.03723	428.43402	47.34432	560.38885	437.64926	
4393	43.920	-236.29576	43.64257	-455.15598	221.38130	23.68023	-322.88089	-257.61340	24.15298	161.46754	124.96810	13.48278	186.88139	47.81934	762.54761	-736.02386	-47.49812	592.43188	-451.31854	106.35259	597.18201	-444.41293	-93.11082	560.94696	429.40207	48.58757	559.87946	439.02884	
4394	43.930	-235.81940	53.44289	-450.51154	220.36855	23.82037	-323.02429	-258.37048	24.43203	161.76802	124.10968	13.18911	186.87929	47.14857	762.64001	-735.81207	-47.58414	592.33704	-450.58820	105.92054	597.29041	-443.49637	-92.29871	560.47980	430.32532	49.15035	559.38574	439.18350	
4395	43.940	-234.14888	63.30840	-447.11710	218.62665	23.92629	-323.28784	-259.12753	24.59007	162.19991	123.02610	12.93910	186.94020	46.96576	762.65955	-735.68768	-47.68575	592.10693	-450.01773	105.27190	597.37714	-443.09558	-91.69332	560.30133	431.35287	50.15377	559.17194	439.79037	
4396	43.950	-234.68575	74.98233	-447.99451	217.77782	24.20125	-323.45273	-259.68320	24.65879	162.50371	122.10863	12.70459	187.14861	46.88468	762.71454	-735.54657	-48.76490	591.94525	-448.98007	104.98749	597.52429	-442.82831	-90.47397	559.67499	431.81519	51.03072	559.01038	440.43976	
4397	43.960	-233.21545	87.25140	-451.71274	216.57712	24.54660	-323.66788	-260.34207	24.86458	162.69661	121.72125	12.49586	187.01280	47.11707	762.72974	-735.46442	-49.41903	592.14819	-448.44739	104.35085	597.91199	-442.20142	-89.70902	559.18225	432.80942	52.03309	558.62189	441.40457	
4398	43.970	-232.21989	99.58416	-455.32935	215.60506	25.04596	-323.49451	-261.17407	24.97926	163.02414	120.44615	12.25910	187.08322	47.25294	762.61682	-735.44275	-50.19907	592.37512	-447.80722	103.45638	598.33331	-441.83270	-89.25040	558.69855	433.23740	52.27977	558.42133	441.66794	
4399	43.980	-229.83321	110.82275	-456.72952	214.84431	25.14085	-323.12497	-262.42673	25.04812	163.20892	119.60387	12.04545	187.13133	47.73080	762.44336	-735.20697	-50.97320	592.58813	-447.11911	102.41692	598.45953	-441.03128	-89.13250	558.17316	433.96463	52.13752	557.78217	442.11951	
